<svg width="42" height="130" viewBox="0 0 256 354" fill="none" xmlns="http://www.w3.org/2000/svg">
<g id="A" filter="url(#filter0_b_5_16)">
<path d="M69.6504 275.805L55.9785 317.064C52.5605 327.481 46.6198 336.189 38.1562 343.188C29.6927 350.023 20.1712 353.441 9.5918 353.441C6.98763 353.441 4.79036 352.709 3 351.244C1.3724 349.942 0.558594 347.989 0.558594 345.385C0.558594 344.408 0.884115 342.943 1.53516 340.99L24.9727 273.852C26.112 270.434 27.3327 267.829 28.6348 266.039C29.9368 264.086 31.7272 262.702 34.0059 261.889C36.4473 261.075 38.5632 260.587 40.3535 260.424C42.3066 260.261 45.5618 260.18 50.1191 260.18C53.8626 260.18 56.6296 260.261 58.4199 260.424C60.2103 260.424 62.2448 260.668 64.5234 261.156C66.9648 261.645 68.6738 262.54 69.6504 263.842C70.627 264.981 71.1152 266.609 71.1152 268.725C71.1152 270.189 70.627 272.549 69.6504 275.805ZM149.973 11.4004L253.977 313.891C255.116 319.099 255.686 322.029 255.686 322.68C255.686 329.678 251.617 336.596 243.479 343.432C235.34 350.105 228.179 353.441 221.994 353.441C216.623 353.441 212.473 349.291 209.543 340.99L107.98 44.6035C106.353 37.2793 105.539 33.373 105.539 32.8848C105.539 25.7233 110.015 18.6432 118.967 11.6445C128.081 4.48307 135.08 0.902344 139.963 0.902344C142.73 0.902344 144.683 1.63477 145.822 3.09961C147.124 4.40169 148.508 7.16862 149.973 11.4004ZM145.578 245.531H46.457C40.2721 245.531 37.1797 242.846 37.1797 237.475C37.1797 236.01 37.5052 234.382 38.1562 232.592L88.2051 82.9336C90.4837 76.5859 93.0879 73.4121 96.0176 73.4121C98.6217 73.4121 100.9 75.0397 102.854 78.2949C104.807 81.3874 106.923 86.4329 109.201 93.4316C113.433 106.615 115.549 116.462 115.549 122.973C115.549 127.53 114.735 132.331 113.107 137.377L94.0645 195.482C93.7389 196.296 93.5762 197.436 93.5762 198.9C93.5762 203.295 96.099 205.492 101.145 205.492H126.535C134.836 205.492 140.451 205.899 143.381 206.713C146.311 207.527 148.671 209.805 150.461 213.549C152.089 216.804 153.391 221.036 154.367 226.244C155.507 231.29 156.076 235.033 156.076 237.475C156.076 242.846 152.577 245.531 145.578 245.531Z" fill="url(#paint0_linear_5_16)"/>
</g>
<defs>
<filter id="filter0_b_5_16" x="-3.44141" y="-3.09766" width="263.127" height="360.539" filterUnits="userSpaceOnUse" color-interpolation-filters="sRGB">
<feFlood flood-opacity="0" result="BackgroundImageFix"/>
<feGaussianBlur in="BackgroundImage" stdDeviation="2"/>
<feComposite in2="SourceAlpha" operator="in" result="effect1_backgroundBlur_5_16"/>
<feBlend mode="normal" in="SourceGraphic" in2="effect1_backgroundBlur_5_16" result="shape"/>
</filter>
<linearGradient id="paint0_linear_5_16" x1="27.5" y1="-48" x2="256" y2="366.5" gradientUnits="userSpaceOnUse">
<stop stop-color="#B60F46"/>
<stop offset="1" stop-color="#D592FF"/>
</linearGradient>
</defs>
</svg>